<svg xmlns="http://www.w3.org/2000/svg" width="1600" height="900" viewBox="0 0 1600 900" role="img" aria-labelledby="title desc">
  <title id="title">Agency path to public feeds</title>
  <desc id="desc">Illustrative five-step path showing a small agency preparing GTFS, publishing a schedule, adding vehicle data, validating feeds, and publishing public feed files.</desc>
  <defs>
    <filter id="shadow" x="-10%" y="-10%" width="120%" height="130%">
      <feDropShadow dx="0" dy="8" stdDeviation="10" flood-color="#0f172a" flood-opacity="0.10"/>
    </filter>
    <marker id="arrow" viewBox="0 0 10 10" refX="9" refY="5" markerWidth="9" markerHeight="9" orient="auto">
      <path d="M0 0L10 5L0 10Z" fill="#2563eb"/>
    </marker>
    <style>
      .bg{fill:#f8fafc}.title{font-family:Arial,sans-serif;fill:#0f172a;font-size:52px;font-weight:800}.subtitle{font-family:Arial,sans-serif;fill:#475569;font-size:23px;font-weight:500}.card{stroke-width:3;rx:24;filter:url(#shadow)}.blue{fill:#eff6ff;stroke:#2563eb}.green{fill:#ecfdf5;stroke:#16a34a}.amber{fill:#fffbeb;stroke:#f59e0b}.purple{fill:#f5f3ff;stroke:#7c3aed}.slate{fill:#f1f5f9;stroke:#475569}.num{font-family:Arial,sans-serif;font-size:36px;font-weight:800}.label{font-family:Arial,sans-serif;fill:#0f172a;font-size:22px;font-weight:800}.small{font-family:Arial,sans-serif;fill:#475569;font-size:19px;font-weight:600}.mono{font-family:Arial,sans-serif;fill:#1e293b;font-size:18px;font-weight:700}.line{stroke:#2563eb;stroke-width:5;fill:none;marker-end:url(#arrow)}.badge{fill:#fff;stroke-width:4}.note{fill:#fff;stroke:#cbd5e1;stroke-width:2;rx:18}
    </style>
  </defs>
  <rect class="bg" width="1600" height="900"/>
  <text x="80" y="86" class="title">Agency path to public feeds</text>
  <text x="80" y="126" class="subtitle">Illustrative teaching graphic based on the project flow.</text>
  <text x="80" y="158" class="subtitle">It does not claim SaaS hosting, CAD/AVL replacement, consumer acceptance, or full compliance.</text>

  <g transform="translate(80 245)">
    <rect class="card blue" width="235" height="330"/>
    <circle class="badge" cx="62" cy="62" r="36" stroke="#2563eb"/>
    <text x="51" y="75" class="num" fill="#2563eb">1</text>
    <text x="32" y="145" class="label">Prepare GTFS</text>
    <text x="32" y="190" class="small">Import a ZIP or</text>
    <text x="32" y="220" class="small">publish a draft</text>
    <text x="32" y="285" class="mono">routes, stops, trips</text>
  </g>

  <path class="line" d="M320 410H365"/>

  <g transform="translate(370 245)">
    <rect class="card green" width="235" height="330"/>
    <circle class="badge" cx="62" cy="62" r="36" stroke="#16a34a"/>
    <text x="51" y="75" class="num" fill="#16a34a">2</text>
    <text x="32" y="145" class="label">Publish Schedule</text>
    <text x="32" y="190" class="small">Create the active</text>
    <text x="32" y="220" class="small">static GTFS feed</text>
    <text x="32" y="285" class="mono">schedule.zip</text>
  </g>

  <path class="line" d="M610 410H655"/>

  <g transform="translate(660 245)">
    <rect class="card amber" width="235" height="330"/>
    <circle class="badge" cx="62" cy="62" r="36" stroke="#f59e0b"/>
    <text x="51" y="75" class="num" fill="#d97706">3</text>
    <text x="32" y="145" class="label">Add Vehicle Data</text>
    <text x="32" y="190" class="small">Accept authenticated</text>
    <text x="32" y="220" class="small">telemetry events</text>
    <text x="32" y="285" class="mono">vehicle state</text>
  </g>

  <path class="line" d="M900 410H945"/>

  <g transform="translate(950 245)">
    <rect class="card purple" width="235" height="330"/>
    <circle class="badge" cx="62" cy="62" r="36" stroke="#7c3aed"/>
    <text x="51" y="75" class="num" fill="#7c3aed">4</text>
    <text x="32" y="145" class="label">Validate</text>
    <text x="32" y="190" class="small">Run pinned checks</text>
    <text x="32" y="220" class="small">and save results</text>
    <text x="32" y="285" class="mono">scorecard</text>
  </g>

  <path class="line" d="M1190 410H1235"/>

  <g transform="translate(1240 245)">
    <rect class="card slate" width="280" height="330"/>
    <circle class="badge" cx="62" cy="62" r="36" stroke="#475569"/>
    <text x="51" y="75" class="num" fill="#475569">5</text>
    <text x="32" y="145" class="label">Public Feeds</text>
    <text x="32" y="190" class="small">Stable public</text>
    <text x="32" y="220" class="small">feed paths</text>
    <text x="32" y="270" class="mono">schedule.zip</text>
    <text x="32" y="300" class="mono">Vehicle Positions</text>
  </g>

  <rect class="note" x="210" y="675" width="1180" height="86"/>
  <text x="250" y="715" class="small">Public protobuf feeds are anonymous.</text>
  <text x="250" y="743" class="small">Admin, JSON debug, validation, scorecard, device, and alert-authoring routes require admin auth.</text>
</svg>
