<svg xmlns="http://www.w3.org/2000/svg" width="1600" height="900" viewBox="0 0 1600 900" role="img" aria-labelledby="title desc">
  <title id="title">How data moves through Open Transit RT</title>
  <desc id="desc">Illustrative data-flow diagram with four columns: inputs, Open Transit RT, validation, and public feeds.</desc>
  <defs>
    <filter id="shadow" x="-10%" y="-10%" width="120%" height="130%">
      <feDropShadow dx="0" dy="8" stdDeviation="10" flood-color="#0f172a" flood-opacity="0.10"/>
    </filter>
    <marker id="arrow" viewBox="0 0 10 10" refX="9" refY="5" markerWidth="10" markerHeight="10" orient="auto">
      <path d="M0 0L10 5L0 10Z" fill="#2563eb"/>
    </marker>
    <style>
      .bg{fill:#f8fafc}.title{font-family:Arial,sans-serif;fill:#0f172a;font-size:54px;font-weight:800}.subtitle{font-family:Arial,sans-serif;fill:#475569;font-size:24px;font-weight:500}.col{fill:#fff;stroke:#cbd5e1;stroke-width:3;rx:28;filter:url(#shadow)}.item{fill:#f8fafc;stroke:#cbd5e1;stroke-width:3;rx:18}.input{fill:#eff6ff;stroke:#2563eb}.core{fill:#ecfdf5;stroke:#16a34a}.check{fill:#fffbeb;stroke:#f59e0b}.public{fill:#f1f5f9;stroke:#475569}.head{font-family:Arial,sans-serif;fill:#0f172a;font-size:40px;font-weight:800}.label{font-family:Arial,sans-serif;fill:#0f172a;font-size:26px;font-weight:800}.small{font-family:Arial,sans-serif;fill:#475569;font-size:20px;font-weight:600}.line{stroke:#2563eb;stroke-width:6;fill:none;marker-end:url(#arrow)}.thin{stroke:#64748b;stroke-width:4;fill:none;marker-end:url(#arrow)}.icon{stroke:#0f172a;stroke-width:7;fill:none;stroke-linecap:round;stroke-linejoin:round}
    </style>
  </defs>
  <rect class="bg" width="1600" height="900"/>
  <text x="80" y="88" class="title">How data moves through Open Transit RT</text>
  <text x="80" y="128" class="subtitle">Illustrative system explainer based on the project design.</text>
  <text x="80" y="160" class="subtitle">Validation records checks; consumer acceptance needs separate evidence.</text>

  <g transform="translate(70 190)">
    <rect class="col" width="315" height="570" rx="28"/>
    <text x="40" y="66" class="head">Inputs</text>
    <rect x="38" y="110" width="240" height="92" class="item input" rx="18"/>
    <text x="88" y="166" class="label">GTFS</text>
    <rect x="38" y="240" width="240" height="92" class="item input" rx="18"/>
    <text x="88" y="296" class="label">Telemetry</text>
    <rect x="38" y="370" width="240" height="92" class="item input" rx="18"/>
    <text x="88" y="426" class="label">Alerts</text>
  </g>

  <path class="line" d="M400 475H500"/>

  <g transform="translate(505 190)">
    <rect class="col" width="380" height="570" rx="28"/>
    <text x="40" y="66" class="head">Open Transit RT</text>
    <rect x="42" y="110" width="296" height="88" class="item core" rx="18"/>
    <text x="76" y="162" class="label">Published schedule</text>
    <rect x="42" y="225" width="296" height="88" class="item core" rx="18"/>
    <text x="76" y="277" class="label">Assignments</text>
    <rect x="42" y="340" width="296" height="88" class="item core" rx="18"/>
    <text x="76" y="392" class="label">Prediction adapter</text>
    <text x="42" y="488" class="small">Trip Updates stay behind</text>
    <text x="42" y="516" class="small">a replaceable adapter boundary.</text>
  </g>

  <path class="line" d="M900 475H995"/>

  <g transform="translate(1000 190)">
    <rect class="col" width="240" height="570" rx="28"/>
    <text x="34" y="66" class="head">Validation</text>
    <rect x="45" y="225" width="150" height="150" class="item check" rx="20"/>
    <path class="icon" d="M80 300l30 30 55-70" stroke="#d97706"/>
    <text x="42" y="438" class="small">Checks generated</text>
    <text x="42" y="466" class="small">feed artifacts.</text>
  </g>

  <path class="line" d="M1255 475H1345"/>

  <g transform="translate(1350 190)">
    <rect class="col" width="190" height="570" rx="28"/>
    <text x="28" y="66" class="head">Public</text>
    <text x="28" y="108" class="head">feeds</text>
    <rect x="24" y="145" width="142" height="70" class="item public" rx="16"/>
    <text x="42" y="188" class="label" style="font-size:22px">schedule.zip</text>
    <rect x="24" y="245" width="142" height="70" class="item public" rx="16"/>
    <text x="42" y="279" class="label" style="font-size:22px">Vehicle</text>
    <text x="42" y="304" class="label" style="font-size:22px">Positions</text>
    <rect x="24" y="345" width="142" height="70" class="item public" rx="16"/>
    <text x="42" y="379" class="label" style="font-size:22px">Trip</text>
    <text x="42" y="404" class="label" style="font-size:22px">Updates</text>
    <rect x="24" y="445" width="142" height="70" class="item public" rx="16"/>
    <text x="42" y="488" class="label" style="font-size:22px">Alerts</text>
  </g>

</svg>
